<?xml version="1.0" encoding="UTF-8" standalone="no"?>
<!DOCTYPE svg PUBLIC "-//W3C//DTD SVG 1.1//EN"
 "http://www.w3.org/Graphics/SVG/1.1/DTD/svg11.dtd">
<!-- Generated by graphviz version 2.44.1 (20200629.0800)
 -->
<!-- Pages: 1 -->
<svg width="927pt" height="275pt"
 viewBox="0.00 0.00 927.50 274.78" xmlns="http://www.w3.org/2000/svg" xmlns:xlink="http://www.w3.org/1999/xlink">
<g id="graph0" class="graph" transform="scale(1 1) rotate(0) translate(4 270.78)">
<polygon fill="white" stroke="transparent" points="-4,4 -4,-270.78 923.5,-270.78 923.5,4 -4,4"/>
<!-- Sensor 1 -->
<g id="node1" class="node">
<title>Sensor 1</title>
<polygon fill="lightgray" stroke="black" points="336.25,-266.78 289.25,-266.78 289.25,-248.78 336.25,-248.78 336.25,-266.78"/>
<text text-anchor="middle" x="312.75" y="-255.58" font-family="Times New Roman,serif" font-size="9.00">Sensor 1</text>
</g>
<!-- Left -->
<g id="node9" class="node">
<title>Left</title>
<ellipse fill="lightblue" stroke="black" cx="310.75" cy="-166.81" rx="22.76" ry="22.76"/>
<text text-anchor="middle" x="310.75" y="-164.61" font-family="Times New Roman,serif" font-size="9.00">Left</text>
</g>
<!-- Sensor 1&#45;&gt;Left -->
<g id="edge1" class="edge">
<title>Sensor 1&#45;&gt;Left</title>
<path fill="none" stroke="green" stroke-width="0.26" d="M312.56,-248.57C312.32,-237.6 311.87,-217.51 311.48,-200.12"/>
<polygon fill="green" stroke="green" stroke-width="0.26" points="314.97,-199.67 311.24,-189.75 307.97,-199.82 314.97,-199.67"/>
</g>
<!-- Stall -->
<g id="node15" class="node">
<title>Stall</title>
<ellipse fill="lightblue" stroke="black" cx="247.75" cy="-166.81" rx="22.76" ry="22.76"/>
<text text-anchor="middle" x="247.75" y="-164.61" font-family="Times New Roman,serif" font-size="9.00">Stall</text>
</g>
<!-- Sensor 1&#45;&gt;Stall -->
<g id="edge2" class="edge">
<title>Sensor 1&#45;&gt;Stall</title>
<path fill="none" stroke="red" stroke-width="0.46" stroke-dasharray="1,5" d="M306.35,-248.77C299.41,-240.02 288.09,-225.56 278.75,-212.78 274.47,-206.91 269.97,-200.53 265.77,-194.47"/>
<polygon fill="red" stroke="red" stroke-width="0.46" points="268.44,-192.17 259.9,-185.91 262.67,-196.14 268.44,-192.17"/>
</g>
<!-- Reverse&#45;right -->
<g id="node17" class="node">
<title>Reverse&#45;right</title>
<ellipse fill="lightblue" stroke="black" cx="497.75" cy="-166.81" rx="45.92" ry="45.92"/>
<text text-anchor="middle" x="497.75" y="-164.61" font-family="Times New Roman,serif" font-size="9.00">Reverse&#45;right</text>
</g>
<!-- Sensor 1&#45;&gt;Reverse&#45;right -->
<g id="edge3" class="edge">
<title>Sensor 1&#45;&gt;Reverse&#45;right</title>
<path fill="none" stroke="red" stroke-width="0.13" d="M336.34,-251.51C363.22,-244.91 407.94,-232.06 442.75,-212.78 447.22,-210.3 451.68,-207.45 456.03,-204.41"/>
<polygon fill="red" stroke="red" stroke-width="0.13" points="458.23,-207.13 464.2,-198.37 454.08,-201.5 458.23,-207.13"/>
</g>
<!-- Sensor 2 -->
<g id="node2" class="node">
<title>Sensor 2</title>
<polygon fill="lightgray" stroke="black" points="648.25,-266.78 601.25,-266.78 601.25,-248.78 648.25,-248.78 648.25,-266.78"/>
<text text-anchor="middle" x="624.75" y="-255.58" font-family="Times New Roman,serif" font-size="9.00">Sensor 2</text>
</g>
<!-- Right -->
<g id="node10" class="node">
<title>Right</title>
<ellipse fill="lightblue" stroke="black" cx="624.75" cy="-166.81" rx="25.41" ry="25.41"/>
<text text-anchor="middle" x="624.75" y="-164.61" font-family="Times New Roman,serif" font-size="9.00">Right</text>
</g>
<!-- Sensor 2&#45;&gt;Right -->
<g id="edge4" class="edge">
<title>Sensor 2&#45;&gt;Right</title>
<path fill="none" stroke="green" stroke-width="0.15" d="M624.75,-248.57C624.75,-238.09 624.75,-219.32 624.75,-202.51"/>
<polygon fill="green" stroke="green" stroke-width="0.15" points="628.25,-202.39 624.75,-192.39 621.25,-202.39 628.25,-202.39"/>
</g>
<!-- Speed -->
<g id="node11" class="node">
<title>Speed</title>
<ellipse fill="lightblue" stroke="black" cx="694.75" cy="-166.81" rx="26.74" ry="26.74"/>
<text text-anchor="middle" x="694.75" y="-164.61" font-family="Times New Roman,serif" font-size="9.00">Speed</text>
</g>
<!-- Sensor 2&#45;&gt;Speed -->
<g id="edge5" class="edge">
<title>Sensor 2&#45;&gt;Speed</title>
<path fill="none" stroke="red" stroke-width="0.15" stroke-dasharray="1,5" d="M631.21,-248.57C640.42,-236.85 657.81,-214.76 672.07,-196.64"/>
<polygon fill="red" stroke="red" stroke-width="0.15" points="674.93,-198.67 678.36,-188.64 669.42,-194.34 674.93,-198.67"/>
</g>
<!-- Speed&#45;right -->
<g id="node14" class="node">
<title>Speed&#45;right</title>
<ellipse fill="lightblue" stroke="black" cx="392.75" cy="-166.81" rx="41.02" ry="41.02"/>
<text text-anchor="middle" x="392.75" y="-164.61" font-family="Times New Roman,serif" font-size="9.00">Speed&#45;right</text>
</g>
<!-- Sensor 2&#45;&gt;Speed&#45;right -->
<g id="edge6" class="edge">
<title>Sensor 2&#45;&gt;Speed&#45;right</title>
<path fill="none" stroke="green" stroke-width="1.47" d="M601.04,-254.78C565,-250.96 495.09,-240.35 442.75,-212.78 437.84,-210.19 433.04,-207.02 428.46,-203.56"/>
<polygon fill="green" stroke="green" stroke-width="1.47" points="430.47,-200.69 420.5,-197.11 426.06,-206.13 430.47,-200.69"/>
</g>
<!-- Sensor 3 -->
<g id="node3" class="node">
<title>Sensor 3</title>
<polygon fill="lightgray" stroke="black" points="716.25,-266.78 669.25,-266.78 669.25,-248.78 716.25,-248.78 716.25,-266.78"/>
<text text-anchor="middle" x="692.75" y="-255.58" font-family="Times New Roman,serif" font-size="9.00">Sensor 3</text>
</g>
<!-- Sensor 3&#45;&gt;Right -->
<g id="edge7" class="edge">
<title>Sensor 3&#45;&gt;Right</title>
<path fill="none" stroke="red" stroke-width="0.18" d="M686.46,-248.69C679.61,-239.87 668.36,-225.35 658.75,-212.78 654.52,-207.24 650.01,-201.3 645.7,-195.62"/>
<polygon fill="red" stroke="red" stroke-width="0.18" points="648.42,-193.41 639.6,-187.55 642.84,-197.63 648.42,-193.41"/>
</g>
<!-- Sensor 3&#45;&gt;Speed -->
<g id="edge8" class="edge">
<title>Sensor 3&#45;&gt;Speed</title>
<path fill="none" stroke="green" stroke-width="0.21" stroke-dasharray="1,5" d="M692.93,-248.57C693.16,-238.48 693.56,-220.68 693.93,-204.35"/>
<polygon fill="green" stroke="green" stroke-width="0.21" points="697.44,-204.01 694.16,-193.94 690.44,-203.85 697.44,-204.01"/>
</g>
<!-- Speed&#45;left -->
<g id="node13" class="node">
<title>Speed&#45;left</title>
<ellipse fill="lightblue" stroke="black" cx="776.75" cy="-166.81" rx="37.45" ry="37.45"/>
<text text-anchor="middle" x="776.75" y="-164.61" font-family="Times New Roman,serif" font-size="9.00">Speed&#45;left</text>
</g>
<!-- Sensor 3&#45;&gt;Speed&#45;left -->
<g id="edge9" class="edge">
<title>Sensor 3&#45;&gt;Speed&#45;left</title>
<path fill="none" stroke="green" stroke-width="0.24" stroke-dasharray="1,5" d="M700.5,-248.57C710.43,-238.05 728.27,-219.16 744.2,-202.29"/>
<polygon fill="green" stroke="green" stroke-width="0.24" points="747.03,-204.39 751.35,-194.72 741.94,-199.59 747.03,-204.39"/>
</g>
<!-- Sensor 3&#45;&gt;Stall -->
<g id="edge10" class="edge">
<title>Sensor 3&#45;&gt;Stall</title>
<path fill="none" stroke="red" stroke-width="0.27" stroke-dasharray="1,5" d="M669.11,-250.93C665.33,-250.13 661.44,-249.37 657.75,-248.78 574.22,-235.32 351.7,-255.61 278.75,-212.78 272.12,-208.88 266.57,-202.94 262.1,-196.64"/>
<polygon fill="red" stroke="red" stroke-width="0.27" points="264.94,-194.59 256.65,-187.99 259.01,-198.31 264.94,-194.59"/>
</g>
<!-- Sensor 4 -->
<g id="node4" class="node">
<title>Sensor 4</title>
<polygon fill="lightgray" stroke="black" points="271.25,-266.78 224.25,-266.78 224.25,-248.78 271.25,-248.78 271.25,-266.78"/>
<text text-anchor="middle" x="247.75" y="-255.58" font-family="Times New Roman,serif" font-size="9.00">Sensor 4</text>
</g>
<!-- Sensor 4&#45;&gt;Left -->
<g id="edge11" class="edge">
<title>Sensor 4&#45;&gt;Left</title>
<path fill="none" stroke="green" stroke-width="0.27" d="M253.71,-248.71C260.18,-239.92 270.8,-225.42 279.75,-212.78 283.87,-206.95 288.25,-200.67 292.38,-194.7"/>
<polygon fill="green" stroke="green" stroke-width="0.27" points="295.4,-196.48 298.18,-186.26 289.63,-192.52 295.4,-196.48"/>
</g>
<!-- Sensor 4&#45;&gt;Speed&#45;right -->
<g id="edge12" class="edge">
<title>Sensor 4&#45;&gt;Speed&#45;right</title>
<path fill="none" stroke="red" stroke-width="0.3" stroke-dasharray="1,5" d="M269.85,-248.73C289.75,-240.98 319.38,-228.19 342.75,-212.78 347.32,-209.76 351.89,-206.35 356.31,-202.77"/>
<polygon fill="red" stroke="red" stroke-width="0.3" points="358.68,-205.35 364.07,-196.23 354.17,-200 358.68,-205.35"/>
</g>
<!-- Sensor 4&#45;&gt;Stall -->
<g id="edge33" class="edge">
<title>Sensor 4&#45;&gt;Stall</title>
<path fill="none" stroke="red" stroke-width="0.65" d="M247.75,-248.57C247.75,-237.6 247.75,-217.51 247.75,-200.12"/>
<polygon fill="red" stroke="red" stroke-width="0.65" points="251.25,-199.75 247.75,-189.75 244.25,-199.75 251.25,-199.75"/>
</g>
<!-- Reverse&#45;left -->
<g id="node16" class="node">
<title>Reverse&#45;left</title>
<ellipse fill="lightblue" stroke="black" cx="343.75" cy="-42.43" rx="42.35" ry="42.35"/>
<text text-anchor="middle" x="343.75" y="-40.23" font-family="Times New Roman,serif" font-size="9.00">Reverse&#45;left</text>
</g>
<!-- Sensor 4&#45;&gt;Reverse&#45;left -->
<g id="edge13" class="edge">
<title>Sensor 4&#45;&gt;Reverse&#45;left</title>
<path fill="none" stroke="red" stroke-width="0.34" stroke-dasharray="1,5" d="M224.09,-250.92C194.13,-242.96 145.15,-227.98 134.75,-212.78 111.69,-179.05 111.41,-154.39 134.75,-120.85 169.73,-70.59 241.32,-52.89 290.9,-46.69"/>
<polygon fill="red" stroke="red" stroke-width="0.34" points="291.58,-50.13 301.12,-45.53 290.79,-43.18 291.58,-50.13"/>
</g>
<!-- Sensor 5 -->
<g id="node5" class="node">
<title>Sensor 5</title>
<polygon fill="lightgray" stroke="black" points="416.25,-266.78 369.25,-266.78 369.25,-248.78 416.25,-248.78 416.25,-266.78"/>
<text text-anchor="middle" x="392.75" y="-255.58" font-family="Times New Roman,serif" font-size="9.00">Sensor 5</text>
</g>
<!-- Sensor 5&#45;&gt;Left -->
<g id="edge14" class="edge">
<title>Sensor 5&#45;&gt;Left</title>
<path fill="none" stroke="red" stroke-width="0.27" d="M382.16,-248.65C371.57,-240.27 355.14,-226.52 342.75,-212.78 337.83,-207.33 333,-201.11 328.63,-195.08"/>
<polygon fill="red" stroke="red" stroke-width="0.27" points="331.21,-192.67 322.61,-186.48 325.48,-196.68 331.21,-192.67"/>
</g>
<!-- Sensor 5&#45;&gt;Right -->
<g id="edge15" class="edge">
<title>Sensor 5&#45;&gt;Right</title>
<path fill="none" stroke="green" stroke-width="0.28" stroke-dasharray="1,5" d="M416.25,-252.54C448.1,-246.3 506.31,-233.14 552.75,-212.78 567.77,-206.19 583.34,-196.83 596.15,-188.35"/>
<polygon fill="green" stroke="green" stroke-width="0.28" points="598.21,-191.18 604.53,-182.67 594.28,-185.39 598.21,-191.18"/>
</g>
<!-- Sensor 5&#45;&gt;Speed&#45;right -->
<g id="edge16" class="edge">
<title>Sensor 5&#45;&gt;Speed&#45;right</title>
<path fill="none" stroke="green" stroke-width="0.47" stroke-dasharray="1,5" d="M392.75,-248.57C392.75,-241.24 392.75,-229.85 392.75,-217.92"/>
<polygon fill="green" stroke="green" stroke-width="0.47" points="396.25,-217.84 392.75,-207.84 389.25,-217.84 396.25,-217.84"/>
</g>
<!-- Sensor 6 -->
<g id="node6" class="node">
<title>Sensor 6</title>
<polygon fill="lightgray" stroke="black" points="203.25,-266.78 156.25,-266.78 156.25,-248.78 203.25,-248.78 203.25,-266.78"/>
<text text-anchor="middle" x="179.75" y="-255.58" font-family="Times New Roman,serif" font-size="9.00">Sensor 6</text>
</g>
<!-- Sensor 6&#45;&gt;Left -->
<g id="edge17" class="edge">
<title>Sensor 6&#45;&gt;Left</title>
<path fill="none" stroke="green" stroke-width="0.18" stroke-dasharray="1,5" d="M203.58,-250.38C225.21,-243.69 257.09,-231.51 279.75,-212.78 285.58,-207.96 290.78,-201.78 295.19,-195.55"/>
<polygon fill="green" stroke="green" stroke-width="0.18" points="298.13,-197.44 300.68,-187.16 292.28,-193.61 298.13,-197.44"/>
</g>
<!-- Reverse -->
<g id="node12" class="node">
<title>Reverse</title>
<ellipse fill="lightblue" stroke="black" cx="175.75" cy="-166.81" rx="31.64" ry="31.64"/>
<text text-anchor="middle" x="175.75" y="-164.61" font-family="Times New Roman,serif" font-size="9.00">Reverse</text>
</g>
<!-- Sensor 6&#45;&gt;Reverse -->
<g id="edge18" class="edge">
<title>Sensor 6&#45;&gt;Reverse</title>
<path fill="none" stroke="green" stroke-width="0.21" d="M179.38,-248.57C178.97,-239.41 178.27,-223.91 177.6,-208.92"/>
<polygon fill="green" stroke="green" stroke-width="0.21" points="181.08,-208.54 177.14,-198.71 174.09,-208.86 181.08,-208.54"/>
</g>
<!-- Sensor 6&#45;&gt;Speed&#45;right -->
<g id="edge19" class="edge">
<title>Sensor 6&#45;&gt;Speed&#45;right</title>
<path fill="none" stroke="red" stroke-width="0.24" d="M203.56,-251C245.77,-240.66 330.45,-219.46 342.75,-212.78 347.62,-210.13 352.41,-206.91 356.97,-203.44"/>
<polygon fill="red" stroke="red" stroke-width="0.24" points="359.38,-205.99 364.91,-196.96 354.95,-200.56 359.38,-205.99"/>
</g>
<!-- Sensor 6&#45;&gt;Stall -->
<g id="edge20" class="edge">
<title>Sensor 6&#45;&gt;Stall</title>
<path fill="none" stroke="green" stroke-width="0.18" stroke-dasharray="1,5" d="M187.09,-248.54C194.73,-239.84 206.95,-225.63 216.75,-212.78 221.15,-207 225.7,-200.66 229.9,-194.6"/>
<polygon fill="green" stroke="green" stroke-width="0.18" points="233,-196.26 235.76,-186.04 227.23,-192.31 233,-196.26"/>
</g>
<!-- Sensor 6&#45;&gt;Reverse&#45;left -->
<g id="edge21" class="edge">
<title>Sensor 6&#45;&gt;Reverse&#45;left</title>
<path fill="none" stroke="red" stroke-width="0.45" d="M157.95,-248.77C142.55,-241.83 123.04,-230.14 113.75,-212.78 94.47,-176.76 89.91,-154.03 113.75,-120.85 153.94,-64.92 236.58,-48.85 291.07,-44.54"/>
<polygon fill="red" stroke="red" stroke-width="0.45" points="291.5,-48.02 301.24,-43.84 291.02,-41.03 291.5,-48.02"/>
</g>
<!-- 2621 -->
<g id="node19" class="node">
<title>2621</title>
<ellipse fill="white" stroke="black" cx="24.75" cy="-166.81" rx="25" ry="25"/>
<text text-anchor="middle" x="24.75" y="-164.61" font-family="Times New Roman,serif" font-size="9.00">2621</text>
</g>
<!-- Sensor 6&#45;&gt;2621 -->
<g id="edge36" class="edge">
<title>Sensor 6&#45;&gt;2621</title>
<path fill="none" stroke="green" stroke-width="0.3" d="M155.89,-251.41C131.21,-245.06 92.36,-232.75 63.75,-212.78 56.96,-208.04 50.59,-201.86 45.06,-195.6"/>
<polygon fill="green" stroke="green" stroke-width="0.3" points="47.61,-193.19 38.52,-187.75 42.23,-197.67 47.61,-193.19"/>
</g>
<!-- Sensor 7 -->
<g id="node7" class="node">
<title>Sensor 7</title>
<polygon fill="lightgray" stroke="black" points="521.25,-266.78 474.25,-266.78 474.25,-248.78 521.25,-248.78 521.25,-266.78"/>
<text text-anchor="middle" x="497.75" y="-255.58" font-family="Times New Roman,serif" font-size="9.00">Sensor 7</text>
</g>
<!-- Sensor 7&#45;&gt;Left -->
<g id="edge32" class="edge">
<title>Sensor 7&#45;&gt;Left</title>
<path fill="none" stroke="green" stroke-width="0.3" d="M474.13,-254.95C441.81,-251.43 383.21,-241.32 342.75,-212.78 336.4,-208.3 330.86,-202.14 326.25,-195.82"/>
<polygon fill="green" stroke="green" stroke-width="0.3" points="329.01,-193.64 320.57,-187.24 323.18,-197.51 329.01,-193.64"/>
</g>
<!-- Sensor 7&#45;&gt;Right -->
<g id="edge22" class="edge">
<title>Sensor 7&#45;&gt;Right</title>
<path fill="none" stroke="red" stroke-width="0.26" stroke-dasharray="1,5" d="M519.36,-248.77C538.06,-241.22 565.24,-228.69 585.75,-212.78 591.92,-207.99 597.85,-202.1 603.14,-196.19"/>
<polygon fill="red" stroke="red" stroke-width="0.26" points="606.12,-198.09 609.92,-188.21 600.78,-193.56 606.12,-198.09"/>
</g>
<!-- Sensor 7&#45;&gt;Reverse -->
<g id="edge23" class="edge">
<title>Sensor 7&#45;&gt;Reverse</title>
<path fill="none" stroke="green" stroke-width="0.34" stroke-dasharray="1,5" d="M474.11,-254.02C410.4,-246.45 238.37,-225.11 215.75,-212.78 210.21,-209.76 205.06,-205.66 200.42,-201.16"/>
<polygon fill="green" stroke="green" stroke-width="0.34" points="202.97,-198.76 193.57,-193.86 197.86,-203.55 202.97,-198.76"/>
</g>
<!-- Sensor 7&#45;&gt;Speed&#45;left -->
<g id="edge24" class="edge">
<title>Sensor 7&#45;&gt;Speed&#45;left</title>
<path fill="none" stroke="red" stroke-width="0.23" stroke-dasharray="1,5" d="M521.47,-254.07C573.17,-247.87 694.33,-231.75 730.75,-212.78 735.95,-210.07 740.96,-206.57 745.62,-202.74"/>
<polygon fill="red" stroke="red" stroke-width="0.23" points="748.01,-205.3 753.14,-196.03 743.35,-200.08 748.01,-205.3"/>
</g>
<!-- Sensor 7&#45;&gt;Speed&#45;right -->
<g id="edge25" class="edge">
<title>Sensor 7&#45;&gt;Speed&#45;right</title>
<path fill="none" stroke="green" stroke-width="0.16" d="M487.06,-248.52C475.87,-239.81 457.85,-225.59 442.75,-212.78 438.63,-209.28 434.37,-205.59 430.15,-201.87"/>
<polygon fill="green" stroke="green" stroke-width="0.16" points="432.44,-199.23 422.64,-195.2 427.8,-204.46 432.44,-199.23"/>
</g>
<!-- Sensor 7&#45;&gt;Reverse&#45;left -->
<g id="edge26" class="edge">
<title>Sensor 7&#45;&gt;Reverse&#45;left</title>
<path fill="none" stroke="green" stroke-width="0.11" d="M514.41,-248.75C527.52,-241.41 544.86,-229.2 552.75,-212.78 570.45,-175.95 576.09,-154.39 552.75,-120.85 517.77,-70.59 446.18,-52.89 396.6,-46.69"/>
<polygon fill="green" stroke="green" stroke-width="0.11" points="396.71,-43.18 386.38,-45.53 395.92,-50.13 396.71,-43.18"/>
</g>
<!-- Sensor 7&#45;&gt;Reverse&#45;right -->
<g id="edge27" class="edge">
<title>Sensor 7&#45;&gt;Reverse&#45;right</title>
<path fill="none" stroke="red" stroke-width="0.92" d="M497.75,-248.57C497.75,-242.31 497.75,-233.09 497.75,-223.09"/>
<polygon fill="red" stroke="red" stroke-width="0.92" points="501.25,-222.91 497.75,-212.91 494.25,-222.91 501.25,-222.91"/>
</g>
<!-- Sensor 8 -->
<g id="node8" class="node">
<title>Sensor 8</title>
<polygon fill="lightgray" stroke="black" points="800.25,-266.78 753.25,-266.78 753.25,-248.78 800.25,-248.78 800.25,-266.78"/>
<text text-anchor="middle" x="776.75" y="-255.58" font-family="Times New Roman,serif" font-size="9.00">Sensor 8</text>
</g>
<!-- Sensor 8&#45;&gt;Speed&#45;left -->
<g id="edge31" class="edge">
<title>Sensor 8&#45;&gt;Speed&#45;left</title>
<path fill="none" stroke="green" stroke-width="0.18" d="M776.75,-248.57C776.75,-240.55 776.75,-227.66 776.75,-214.51"/>
<polygon fill="green" stroke="green" stroke-width="0.18" points="780.25,-214.48 776.75,-204.48 773.25,-214.48 780.25,-214.48"/>
</g>
<!-- Sensor 8&#45;&gt;Speed&#45;right -->
<g id="edge28" class="edge">
<title>Sensor 8&#45;&gt;Speed&#45;right</title>
<path fill="none" stroke="red" stroke-width="0.31" stroke-dasharray="1,5" d="M753.16,-252.93C744.54,-251.56 734.71,-250.05 725.75,-248.78 600.22,-230.95 558.03,-265.57 442.75,-212.78 437.71,-210.47 432.82,-207.47 428.19,-204.11"/>
<polygon fill="red" stroke="red" stroke-width="0.31" points="430.19,-201.23 420.18,-197.76 425.84,-206.72 430.19,-201.23"/>
</g>
<!-- Sensor 8&#45;&gt;Reverse&#45;left -->
<g id="edge29" class="edge">
<title>Sensor 8&#45;&gt;Reverse&#45;left</title>
<path fill="none" stroke="red" stroke-width="0.23" d="M790.09,-248.54C801.17,-240.84 816.15,-228.22 822.75,-212.78 838.8,-175.21 849.23,-151.96 822.75,-120.85 768.47,-57.1 509.65,-45.67 396.68,-43.75"/>
<polygon fill="red" stroke="red" stroke-width="0.23" points="396.59,-40.24 386.54,-43.59 396.49,-47.24 396.59,-40.24"/>
</g>
<!-- Sensor 8&#45;&gt;Reverse&#45;right -->
<g id="edge30" class="edge">
<title>Sensor 8&#45;&gt;Reverse&#45;right</title>
<path fill="none" stroke="red" stroke-width="0.51" d="M753.08,-252.89C717.28,-246.63 647.5,-232.94 590.75,-212.78 576.33,-207.66 561.2,-200.95 547.42,-194.29"/>
<polygon fill="red" stroke="red" stroke-width="0.51" points="548.64,-191 538.13,-189.71 545.55,-197.27 548.64,-191"/>
</g>
<!-- 2352 -->
<g id="node18" class="node">
<title>2352</title>
<ellipse fill="white" stroke="black" cx="894.75" cy="-166.81" rx="25" ry="25"/>
<text text-anchor="middle" x="894.75" y="-164.61" font-family="Times New Roman,serif" font-size="9.00">2352</text>
</g>
<!-- Sensor 8&#45;&gt;2352 -->
<g id="edge34" class="edge">
<title>Sensor 8&#45;&gt;2352</title>
<path fill="none" stroke="green" stroke-width="0.2" d="M795.44,-248.65C812.21,-240.85 836.98,-228.02 855.75,-212.78 862.18,-207.55 868.4,-201.19 873.92,-194.92"/>
<polygon fill="green" stroke="green" stroke-width="0.2" points="876.74,-197.02 880.5,-187.11 871.38,-192.51 876.74,-197.02"/>
</g>
<!-- 2352&#45;&gt;Reverse&#45;left -->
<g id="edge35" class="edge">
<title>2352&#45;&gt;Reverse&#45;left</title>
<path fill="none" stroke="red" stroke-width="0.16" d="M881.94,-145.37C875.24,-136.41 866.25,-126.63 855.75,-120.85 777.28,-77.66 510.72,-54.79 396.46,-46.78"/>
<polygon fill="red" stroke="red" stroke-width="0.16" points="396.43,-43.27 386.21,-46.08 395.95,-50.26 396.43,-43.27"/>
</g>
<!-- 2621&#45;&gt;Reverse&#45;left -->
<g id="edge37" class="edge">
<title>2621&#45;&gt;Reverse&#45;left</title>
<path fill="none" stroke="red" stroke-width="0.33" d="M38.24,-145.46C44.96,-136.74 53.79,-127.14 63.75,-120.85 134.76,-76.03 231.85,-56.76 291.05,-48.76"/>
<polygon fill="red" stroke="red" stroke-width="0.33" points="291.82,-52.19 301.29,-47.44 290.92,-45.25 291.82,-52.19"/>
</g>
</g>
</svg>
